<?xml version="1.0" standalone="no"?>
<!DOCTYPE svg PUBLIC "-//W3C//DTD SVG 20010904//EN"
 "http://www.w3.org/TR/2001/REC-SVG-20010904/DTD/svg10.dtd">
<svg version="1.0" xmlns="http://www.w3.org/2000/svg"
 width="210.000000pt" height="212.000000pt" viewBox="0 0 210.000000 212.000000"
 preserveAspectRatio="xMidYMid meet">

<g transform="translate(0.000000,212.000000) scale(0.100000,-0.100000)"
fill="#000000" stroke="none">
<path d="M170 1715 l0 -255 60 0 60 0 0 100 0 100 80 0 80 0 0 55 0 55 -80 0
-80 0 0 50 0 50 84 0 84 0 4 43 c3 23 3 45 1 50 -2 4 -69 7 -149 7 l-144 0 0
-255z"/>
<path d="M655 1954 c-55 -29 -94 -64 -122 -112 -24 -40 -28 -58 -28 -122 0
-64 5 -85 33 -144 l32 -68 0 -176 0 -176 -33 47 c-64 90 -110 112 -260 122
l-107 7 0 -256 0 -256 68 0 c158 0 236 33 298 124 l34 51 0 -320 c0 -289 2
-324 19 -360 40 -89 117 -134 224 -135 79 0 128 18 176 63 53 51 71 99 71 200
l0 87 69 0 c65 0 71 -2 95 -31 14 -17 26 -36 26 -43 0 -7 -38 -67 -85 -135
-47 -67 -85 -127 -85 -133 0 -7 22 -9 67 -4 37 4 68 8 69 9 17 30 109 157 113
157 3 0 28 -34 54 -75 27 -41 55 -79 62 -85 8 -6 42 -10 80 -8 l67 3 -97 133
-97 133 26 40 26 39 110 0 110 0 0 515 0 515 68 0 68 0 15 -42 c15 -42 17 -43
72 -52 32 -5 59 -7 62 -4 5 5 -182 478 -195 491 -14 16 -100 13 -110 -3 -5 -8
-37 -84 -71 -167 l-61 -153 -85 0 c-81 0 -123 10 -123 30 0 5 19 27 43 49 42
39 42 40 42 109 0 114 -40 140 -222 149 l-113 6 0 -172 0 -171 -30 0 -30 0 0
78 c0 54 -6 89 -19 117 -23 50 -84 109 -133 130 -49 20 -154 20 -193 -1z m582
-84 c22 0 43 -31 43 -64 0 -40 -16 -55 -64 -63 l-36 -6 0 73 c0 70 1 72 23 66
12 -3 27 -6 34 -6z m-410 -27 c12 -8 28 -29 37 -48 20 -42 21 -138 2 -154 -9
-8 -51 -11 -122 -9 l-108 3 -9 35 c-34 133 92 243 200 173z m907 -102 c14 -36
26 -68 26 -73 0 -4 -25 -8 -56 -8 -49 0 -55 2 -50 18 26 68 51 131 52 129 1
-1 14 -31 28 -66z m-946 -172 c-17 -7 -38 -7 -60 0 -30 8 -28 9 27 9 50 0 56
-1 33 -9z m272 -49 l0 -60 60 0 60 0 0 60 c0 60 0 60 29 60 25 0 38 -11 76
-60 l46 -60 102 0 c133 0 142 3 157 51 8 22 17 42 22 45 4 3 8 -216 8 -485 l0
-491 -66 0 -66 0 36 50 c20 28 36 52 36 55 0 3 -31 5 -69 5 l-68 0 -37 -55
c-48 -72 -69 -73 -116 -2 -34 50 -37 52 -85 55 -76 4 -84 -7 -46 -62 l32 -46
-67 0 c-62 0 -69 2 -105 35 -107 97 -235 104 -346 19 l-33 -25 0 182 0 183 29
-47 c56 -87 161 -129 268 -107 64 14 140 78 173 144 46 96 18 228 -64 304 -55
50 -101 65 -186 60 -80 -4 -132 -34 -187 -107 l-33 -43 0 152 c0 141 1 152 18
145 116 -45 260 -9 318 80 13 20 24 25 60 25 l44 0 0 -60z m430 51 c0 -21 -31
-81 -40 -76 -5 3 -23 23 -40 45 l-32 40 56 0 c31 0 56 -4 56 -9z m-1102 -372
c29 -18 62 -86 62 -128 0 -72 -50 -129 -127 -146 l-33 -7 0 155 0 154 38 -7
c20 -3 47 -13 60 -21z m542 2 c56 -39 75 -124 44 -200 -48 -120 -220 -95 -240
34 -9 61 2 108 32 145 42 50 110 58 164 21z m1 -693 c17 -32 15 -118 -5 -156
-23 -44 -62 -67 -112 -66 -80 2 -127 58 -127 149 0 90 7 95 128 95 97 0 105
-1 116 -22z"/>
<path d="M170 435 l0 -258 129 5 c147 5 186 20 216 84 29 62 4 142 -53 166
-15 7 -29 13 -31 15 -2 1 8 16 23 33 20 24 26 42 26 79 0 91 -40 116 -198 126
l-112 8 0 -258z m178 149 c45 -32 21 -94 -37 -94 -19 0 -21 6 -21 55 0 61 14
70 58 39z m49 -220 c33 -44 -3 -94 -67 -94 l-40 0 0 61 0 62 47 -6 c29 -3 52
-12 60 -23z"/>
</g>
</svg>
